HIERARCHY
ROOT Hips
{
	OFFSET -0.001795 -0.223333 0.028219
	CHANNELS 6 Xposition Yposition Zposition Zrotation Yrotation Xrotation 
	JOINT LeftUpLeg
	{
		OFFSET 0.069520 -0.091406 -0.006815
		CHANNELS 3 Zrotation Yrotation Xrotation
		JOINT LeftLeg
		{
			OFFSET 0.034277 -0.375199 -0.004496
			CHANNELS 3 Zrotation Yrotation Xrotation
			JOINT LeftFoot
			{
				OFFSET -0.013596 -0.397961 -0.043693
				CHANNELS 3 Zrotation Yrotation Xrotation
				JOINT LeftToe
				{
					OFFSET 0.026358 -0.055791 0.119288
					CHANNELS 3 Zrotation Yrotation Xrotation
					End Site
					{
						OFFSET 0.000000 0.000000 0.000000
					}
				}
			}
		}
	}
	JOINT RightUpLeg
	{
		OFFSET -0.067670 -0.090522 -0.004320
		CHANNELS 3 Zrotation Yrotation Xrotation
		JOINT RightLeg
		{
			OFFSET -0.038290 -0.382569 -0.008850
			CHANNELS 3 Zrotation Yrotation Xrotation
			JOINT RightFoot
			{
				OFFSET 0.015774 -0.398415 -0.042312
				CHANNELS 3 Zrotation Yrotation Xrotation
				JOINT RightToe
				{
					OFFSET -0.025372 -0.048144 0.123348
					CHANNELS 3 Zrotation Yrotation Xrotation
					End Site
					{
						OFFSET 0.000000 0.000000 0.000000
					}
				}
			}
		}
	}
	JOINT Spine
	{
		OFFSET -0.002533 0.108963 -0.026696
		CHANNELS 3 Zrotation Yrotation Xrotation
		JOINT Spine1
		{
			OFFSET 0.005487 0.135180 0.001092
			CHANNELS 3 Zrotation Yrotation Xrotation
			JOINT Spine2
			{
				OFFSET 0.001457 0.052922 0.025425
				CHANNELS 3 Zrotation Yrotation Xrotation
				JOINT Neck
				{
					OFFSET -0.002778 0.213870 -0.042857
					CHANNELS 3 Zrotation Yrotation Xrotation
					JOINT Head
					{
						OFFSET 0.005152 0.064970 0.051349
						CHANNELS 3 Zrotation Yrotation Xrotation
						End Site
						{
							OFFSET 0.000000 0.000000 0.000000
						}
					}
				}
				JOINT LeftShoulder
				{
					OFFSET 0.078845 0.121749 -0.034090
					CHANNELS 3 Zrotation Yrotation Xrotation
					JOINT LeftArm
					{
						OFFSET 0.090977 0.030469 -0.008868
						CHANNELS 3 Zrotation Yrotation Xrotation
						JOINT LeftForeArm
						{
							OFFSET 0.259612 -0.012772 -0.027456
							CHANNELS 3 Zrotation Yrotation Xrotation
							JOINT LeftHand
							{
								OFFSET 0.249234 0.008986 -0.001171
								CHANNELS 3 Zrotation Yrotation Xrotation
								End Site
								{
									OFFSET 0.000000 0.000000 0.000000
								}
							}
						}
					}
				}
				JOINT RightShoulder
				{
					OFFSET -0.081759 0.118833 -0.038615
					CHANNELS 3 Zrotation Yrotation Xrotation
					JOINT RightArm
					{
						OFFSET -0.096012 0.032551 -0.009143
						CHANNELS 3 Zrotation Yrotation Xrotation
						JOINT RightForeArm
						{
							OFFSET -0.253742 -0.013329 -0.021401
							CHANNELS 3 Zrotation Yrotation Xrotation
							JOINT RightHand
							{
								OFFSET -0.255298 0.007772 -0.005559
								CHANNELS 3 Zrotation Yrotation Xrotation
								End Site
								{
									OFFSET 0.000000 0.000000 0.000000
								}
							}
						}
					}
				}
			}
		}
	}
}
MOTION
Frames: 16
Frame Time: 0.050000
0.000000 0.949769 0.000000 -1.221740 -12.901838 4.172131 6.889522 0.012139 -1.733347 -4.394101 0.592068 -2.696400 21.375661 29.769990 38.493692 0.000000 0.000000 0.000000 -8.372882 0.582747 -1.598413 4.090745 -0.291137 0.935946 -2.985259 -12.386390 13.619650 0.000000 0.000000 0.000000 -1.115104 -0.096043 4.336853 4.759276 -0.957163 -20.954528 -0.358461 3.946477 28.626827 -0.972151 1.561943 -26.884142 0.000000 0.000000 0.000000 -13.676823 2.068654 -0.927816 -39.976491 -7.727649 -4.543039 -84.304769 -46.153195 48.780496 0.000000 0.000000 0.000000 8.474413 2.642138 0.292754 37.995228 2.202841 -4.819621 93.866998 44.284233 47.086981 0.000000 0.000000 0.000000 
-0.000450 0.948674 0.001946 -1.600888 -13.409717 4.630507 7.151390 0.028072 -1.540056 -4.238105 0.575265 -3.340814 21.869927 30.194090 38.577821 0.000000 0.000000 0.000000 -7.064940 0.503822 -1.217965 2.313762 -0.183684 -0.711836 -2.739835 -12.191143 14.143735 0.000000 0.000000 0.000000 -1.002307 -0.083729 3.633172 4.345293 -0.760872 -22.124259 0.865636 4.181072 30.007534 -1.851497 2.052337 -27.058571 0.000000 0.000000 0.000000 -15.249794 3.538364 -1.673772 -37.906616 -8.693582 -4.284873 -88.713647 -42.837635 48.754224 0.000000 0.000000 0.000000 6.978310 2.456238 0.343993 38.236924 0.542971 -5.444712 97.153451 42.553755 47.487310 0.000000 0.000000 0.000000 
-0.000998 0.948801 0.003192 -1.253880 -12.321599 4.911210 6.940154 -0.038366 -2.609981 -4.289114 0.573239 -2.356291 21.216410 29.731876 38.018999 0.000000 0.000000 0.000000 -7.395801 0.522561 -1.521460 2.277976 -0.183304 -0.542851 -3.026318 -12.714027 14.769483 0.000000 0.000000 0.000000 -1.582998 -0.035840 3.143069 5.217188 -1.058088 -20.920615 0.046667 3.586526 29.286379 -1.120596 1.623368 -26.295835 0.000000 0.000000 0.000000 -15.559459 2.813537 -1.331145 -36.908249 -8.628947 -4.226091 -88.569770 -44.332278 49.998947 0.000000 0.000000 0.000000 7.572752 2.778110 0.439508 37.362012 -1.106129 -5.686705 96.927733 43.193165 47.953247 0.000000 0.000000 0.000000 
-0.001886 0.949176 0.003802 -1.272467 -12.652396 5.817205 7.165738 -0.060660 -3.369450 -4.618446 0.613603 -2.578361 21.396320 29.765750 38.512886 0.000000 0.000000 0.000000 -7.516177 0.564427 -2.004363 2.015856 -0.165422 -0.655155 -1.957381 -10.592065 13.501442 0.000000 0.000000 0.000000 -1.838651 0.014981 1.868423 5.445395 -1.121996 -20.762496 -0.153984 3.556303 29.724455 -1.381500 1.734132 -26.171029 0.000000 0.000000 0.000000 -15.878022 3.486407 -1.663683 -35.951873 -9.109407 -4.044763 -91.197202 -44.520999 52.209329 0.000000 0.000000 0.000000 6.355342 2.723231 0.494206 37.786370 -0.639685 -5.674790 99.788446 42.114961 48.756582 0.000000 0.000000 0.000000 
-0.003014 0.949932 0.003572 -1.172886 -12.685033 5.376717 6.879521 -0.056998 -3.062585 -4.178113 0.562328 -2.303782 21.282352 29.619860 38.728949 0.000000 0.000000 0.000000 -7.697702 0.564209 -1.840133 2.043256 -0.169025 -0.726177 -1.691289 -10.520765 14.705324 0.000000 0.000000 0.000000 -2.033339 0.005071 2.651694 5.142152 -1.134401 -19.802591 -0.298004 3.413842 28.912736 -2.197368 2.184509 -25.415929 0.000000 0.000000 0.000000 -15.514492 2.994017 -1.392221 -36.120184 -9.322195 -3.930180 -94.383410 -46.759620 57.320099 0.000000 0.000000 0.000000 6.696090 3.239470 0.655472 37.146426 -0.727840 -5.513786 100.648446 42.556467 49.754082 0.000000 0.000000 0.000000 
-0.004287 0.950672 0.002254 -1.041160 -12.282143 5.565534 6.783077 -0.083171 -3.431611 -4.006925 0.537220 -2.332432 20.920970 29.293715 38.771696 0.000000 0.000000 0.000000 -7.659174 0.559657 -1.900093 1.837139 -0.169452 -1.268717 -1.672262 -10.686437 15.516350 0.000000 0.000000 0.000000 -2.636674 0.035293 3.097778 5.158008 -1.082306 -20.333031 -0.200354 3.425755 29.245881 -2.388349 2.348924 -25.891850 0.000000 0.000000 0.000000 -15.733952 2.460288 -1.162846 -35.751841 -10.376106 -3.644249 -98.496113 -47.128029 61.219211 0.000000 0.000000 0.000000 6.352159 3.994067 1.016747 37.722999 -0.668684 -5.618438 102.479101 43.321364 52.460667 0.000000 0.000000 0.000000 
-0.005829 0.950545 -0.000039 -1.049312 -11.447234 5.728809 7.041534 -0.105440 -4.044076 -4.065383 0.537322 -2.055902 20.422565 28.957345 38.305172 0.000000 0.000000 0.000000 -7.478081 0.545386 -2.154044 1.791637 -0.167169 -1.136078 -1.892544 -11.011498 15.734175 0.000000 0.000000 0.000000 -2.954869 0.049100 3.697144 5.225869 -1.119628 -19.919180 -0.241022 3.586618 28.920744 -2.515084 2.543031 -26.266955 0.000000 0.000000 0.000000 -15.869361 1.869240 -1.006952 -35.167711 -11.767536 -3.195764 -103.298655 -48.238149 66.595546 0.000000 0.000000 0.000000 6.129177 4.622786 1.343420 37.798704 -0.214414 -5.482496 104.034009 44.777180 56.092133 0.000000 0.000000 0.000000 
-0.007888 0.950616 -0.002700 -1.119191 -10.573804 6.083248 7.235544 -0.134156 -4.744611 -3.830113 0.501076 -2.023225 19.889765 28.569327 37.935912 0.000000 0.000000 0.000000 -7.161775 0.539746 -2.721184 1.712424 -0.161628 -0.990117 -2.205886 -11.586500 16.335976 0.000000 0.000000 0.000000 -3.271150 0.068026 4.320081 4.757813 -0.980027 -19.922848 -0.101139 3.674322 28.852231 -2.854790 2.833275 -25.757344 0.000000 0.000000 0.000000 -15.484410 0.027365 -0.153755 -34.057971 -13.356726 -2.706922 -108.314448 -50.063512 73.387920 0.000000 0.000000 0.000000 5.916960 5.751317 1.861092 38.018946 0.734630 -5.247883 106.814800 46.801630 61.689218 0.000000 0.000000 0.000000 
-0.010675 0.950593 -0.005721 -1.228485 -9.752833 6.592207 7.505086 -0.170212 -6.025366 -3.569467 0.462673 -1.276667 19.427768 28.224211 37.656325 0.000000 0.000000 0.000000 -6.770192 0.551823 -3.578929 1.764073 -0.155559 -0.472106 -2.655343 -12.235501 16.401769 0.000000 0.000000 0.000000 -3.875532 0.117406 4.851356 4.769861 -0.986817 -19.611795 -0.180713 4.002498 28.668841 -2.768700 2.936838 -26.731808 0.000000 0.000000 0.000000 -14.884337 -1.562527 0.494352 -33.053177 -15.589800 -2.068594 -112.348422 -53.309173 81.115212 0.000000 0.000000 0.000000 5.692886 7.401083 2.598186 38.193868 2.577489 -4.736767 109.103446 50.162177 68.904321 0.000000 0.000000 0.000000 
-0.014300 0.951260 -0.008815 -1.307717 -8.593458 6.795830 8.103503 -0.173159 -6.688067 -3.813704 0.482609 -1.177270 18.586765 27.568854 37.326849 0.000000 0.000000 0.000000 -6.268299 0.528504 -3.718107 2.013236 -0.179779 -0.479182 -3.558205 -13.575688 16.529169 0.000000 0.000000 0.000000 -4.821066 0.199735 5.584718 4.556320 -0.948848 -19.022984 0.051213 4.372421 28.071880 -2.886494 3.176135 -26.467683 0.000000 0.000000 0.000000 -13.888622 -3.431268 1.200491 -31.911489 -18.931110 -1.150665 -114.179572 -58.704087 88.799634 0.000000 0.000000 0.000000 5.466523 9.608574 3.560495 39.486991 5.681824 -3.915772 108.291242 54.838648 74.891107 0.000000 0.000000 0.000000 
-0.018644 0.951990 -0.012533 -1.738958 -7.407367 7.236663 9.060473 -0.157868 -8.008048 -3.922023 0.487190 -0.374416 17.797405 26.950348 37.057508 0.000000 0.000000 0.000000 -5.710657 0.509263 -3.819466 2.327223 -0.210413 -0.483041 -3.317969 -12.890654 15.846167 0.000000 0.000000 0.000000 -5.460127 0.262181 5.982340 4.173316 -0.845692 -18.621049 0.223388 4.808844 27.664545 -2.055893 2.910014 -27.408852 0.000000 0.000000 0.000000 -12.650404 -5.481030 1.975885 -30.509490 -23.250485 -0.133490 -112.674188 -67.094491 95.750560 0.000000 0.000000 0.000000 5.095942 12.903508 4.940927 41.750686 11.339342 -2.236490 102.507745 62.276464 78.815928 0.000000 0.000000 0.000000 
-0.022995 0.953184 -0.016934 -2.260704 -6.228018 7.170932 9.992393 -0.129293 -8.047692 -3.857596 0.467570 -0.721591 16.566164 26.004352 36.033750 0.000000 0.000000 0.000000 -5.159937 0.488416 -3.911372 2.964846 -0.266500 -0.261789 -3.450738 -13.074465 16.444029 0.000000 0.000000 0.000000 -6.379713 0.367955 7.376540 3.637015 -0.677172 -18.534588 0.748693 5.306879 27.401603 -1.863309 3.016254 -28.091483 0.000000 0.000000 0.000000 -12.416547 -8.520182 3.190707 -27.447340 -27.833936 0.623081 -96.362813 -78.445980 89.473191 0.000000 0.000000 0.000000 4.287927 18.211724 7.011238 43.634145 18.824433 0.454974 81.701305 72.603015 70.382718 0.000000 0.000000 0.000000 
-0.027000 0.954323 -0.022176 -2.811274 -5.124884 7.263052 10.944228 -0.098474 -8.588085 -3.820503 0.453412 -0.666202 15.530647 25.177101 35.306121 0.000000 0.000000 0.000000 -4.164049 0.469061 -4.053662 3.098339 -0.282749 -0.072314 -3.829789 -13.524965 16.255713 0.000000 0.000000 0.000000 -7.059351 0.466976 8.790802 3.318827 -0.589757 -18.082545 1.034470 5.992046 26.366157 -1.265581 2.913144 -28.412071 0.000000 0.000000 0.000000 -11.969667 -12.127425 4.595284 -24.496164 -33.275741 1.305870 -7.592747 -78.967021 9.594010 0.000000 0.000000 0.000000 3.394923 23.679711 9.063267 45.213251 30.707931 5.434590 14.663728 74.943178 16.491054 0.000000 0.000000 0.000000 
-0.029884 0.955266 -0.027435 -3.311927 -4.577615 7.584987 12.039046 -0.043253 -9.190520 -3.908467 0.457977 -0.690397 13.871611 23.625086 34.808065 0.000000 0.000000 0.000000 -3.923856 0.541751 -5.173831 3.752622 -0.339618 0.608542 -3.617342 -13.286514 17.266206 0.000000 0.000000 0.000000 -7.764496 0.605874 10.428051 3.173070 -0.505248 -18.556426 1.466572 7.573295 25.745961 -1.186136 3.199195 -29.087861 0.000000 0.000000 0.000000 -12.198991 -16.232948 6.144449 -20.935080 -38.142857 1.380242 16.995491 -62.650277 -8.283620 0.000000 0.000000 0.000000 2.367728 29.625223 11.248368 43.635718 44.944246 11.381630 -19.998214 56.505885 -7.102590 0.000000 0.000000 0.000000 
-0.031596 0.956529 -0.032162 -3.474365 -4.366290 7.998732 12.447323 -0.023983 -9.540438 -3.706640 0.432887 -1.018553 12.324203 22.122696 33.963825 0.000000 0.000000 0.000000 -3.910403 0.580824 -5.700842 4.313713 -0.394239 0.717499 -3.469477 -12.925775 16.748414 0.000000 0.000000 0.000000 -8.344875 0.732783 11.515411 2.315153 -0.262545 -18.502917 2.356338 8.248476 25.010395 -1.128924 3.294603 -29.243978 0.000000 0.000000 0.000000 -11.806309 -19.581141 7.505365 -17.553723 -41.968417 1.022735 17.879521 -46.099911 -6.208452 0.000000 0.000000 0.000000 -1.044914 34.961860 12.198087 39.671467 59.356531 16.561221 -22.567522 33.998968 -5.148617 0.000000 0.000000 0.000000 
-0.032141 0.956940 -0.035748 -3.494862 -4.238764 8.047380 12.667577 -0.006035 -9.866820 -3.160823 0.371971 -0.972536 10.418095 20.168921 34.327503 0.000000 0.000000 0.000000 -3.880671 0.606225 -6.068966 4.820833 -0.444968 0.962490 -4.077299 -13.886132 16.608485 0.000000 0.000000 0.000000 -8.993129 0.875182 12.602351 1.997857 -0.151443 -18.892504 2.896368 9.183596 24.726155 -2.044672 3.941219 -29.780887 0.000000 0.000000 0.000000 -11.396265 -22.899854 8.803583 -14.788915 -44.832539 0.449079 16.336590 -31.735631 -3.695815 0.000000 0.000000 0.000000 -4.315669 39.462792 12.592376 28.300815 68.448190 14.092105 -20.515525 18.970990 -2.624351 0.000000 0.000000 0.000000 
